<svg id="Layer_1" data-name="Layer 1" xmlns="http://www.w3.org/2000/svg" viewBox="0 0 648.8 589.72" width="30" height="30" style="transform: scale(1);"><defs><style>.cls-1{fill:#BFBFBF;}</style></defs><path class="cls-1" d="M342,0a343.14,343.14,0,0,1,78.1,12.56l-94.78,115L230.78,12.21c8.4-2.86,16.64-4.44,24.84-6.05A320.47,320.47,0,0,1,305.5.05c.92,0,2.06.32,2.52-1h4c.43.91,1.25,1,2.1,1Z"/><path class="cls-1" d="M417.81,145.09c3.44,10,6.74,19.5,10,29q57,165.78,114.1,331.52c1.77,5.13,1.56,8-3,11.58-47.79,37.64-101.75,60.73-161.81,69.7-6.74,1-13.54,1.56-20.26,2.64-3.24.53-3.91-.47-3.87-3.55.16-13,.07-26,.07-39q0-106.2.09-212.4c0-4.27-.69-5.89-5.51-5.8-18.62.33-37.26.21-55.88.06-3.42,0-4.82.38-4.81,4.44q.23,117.95.12,235.89c0,5.33-.09,10.67.28,16,.23,3.3-.89,3.89-3.89,3.5a371.06,371.06,0,0,1-68-14.86,338.18,338.18,0,0,1-98.56-51.15c-3-2.28-4-4.22-2.84-8.21Q149,391.8,183.53,269c11.24-39.8,22.55-79.57,33.65-119.4,1.23-4.38,2.53-4,5.72-1.79,31.58,22.14,63.28,44.09,94.84,66.25,2.94,2.06,4.78,2.09,7.68-.09q43.44-32.7,87.11-65.11C414.1,147.72,415.71,146.59,417.81,145.09Z"/><path class="cls-1" d="M163,39.08c-38.38,137.18-76.52,273.47-115,411.1C8.36,389.65-7.3,324.87,3.16,254.3,18.74,149.18,93.17,74.05,163,39.08Z"/><path class="cls-1" d="M487.45,39.5C518,55.81,544.58,75.56,567.81,99.71c36.63,38.05,62.21,82.38,73.85,134.13,16.49,73.26,4.23,141.92-34.82,207.24C567,306.88,527.35,173.7,487.45,39.5Z"/></svg>